{
    "asset" : {
        "generator" : "Khronos glTF Blender I/O v1.2.75",
        "version" : "2.0"
    },
    "scene" : 0,
    "scenes" : [
        {
            "name" : "Scene",
            "nodes" : [
                0,
                1,
                2,
                3,
                6
            ]
        }
    ],
    "nodes" : [
        {
            "mesh" : 0,
            "name" : "Chair",
            "scale" : [
                3.2109122276306152,
                3.2109122276306152,
                3.2109122276306152
            ]
        },
        {
            "name" : "Camera",
            "rotation" : [
                0.483536034822464,
                0.33687159419059753,
                -0.20870360732078552,
                0.7804827094078064
            ],
            "translation" : [
                7.358891487121582,
                4.958309173583984,
                6.925790786743164
            ]
        },
        {
            "mesh" : 1,
            "name" : "Table",
            "scale" : [
                5.146484851837158,
                0.3301648497581482,
                8.918257713317871
            ],
            "translation" : [
                -2.856956958770752,
                1.7987761497497559,
                0
            ]
        },
        {
            "name" : "Overhead",
            "translation" : [
                -2.876854419708252,
                6.43467378616333,
                0
            ]
        },
        {
            "name" : "Sun",
            "rotation" : [
                -0.31059619784355164,
                0.6342468857765198,
                -0.6201819777488708,
                0.34151896834373474
            ],
            "translation" : [
                16.839298248291016,
                21.754268646240234,
                -5.374388694763184
            ]
        },
        {
            "name" : "Bone"
        },
        {
            "children" : [
                4,
                5
            ],
            "name" : "SunController"
        }
    ],
    "materials" : [
        {
            "doubleSided" : true,
            "emissiveFactor" : [
                0.004895646590739489,
                0.004895646590739489,
                0.004895646590739489
            ],
            "name" : "Material",
            "pbrMetallicRoughness" : {
                "baseColorTexture" : {
                    "index" : 0,
                    "texCoord" : 0
                },
                "metallicFactor" : 0,
                "roughnessFactor" : 0.4000000059604645
            }
        }
    ],
    "meshes" : [
        {
            "name" : "Chair",
            "primitives" : [
                {
                    "attributes" : {
                        "POSITION" : 0,
                        "NORMAL" : 1,
                        "TEXCOORD_0" : 2
                    },
                    "indices" : 3,
                    "material" : 0
                }
            ]
        },
        {
            "name" : "Cube",
            "primitives" : [
                {
                    "attributes" : {
                        "POSITION" : 4,
                        "NORMAL" : 5,
                        "TEXCOORD_0" : 6
                    },
                    "indices" : 7
                }
            ]
        }
    ],
    "textures" : [
        {
            "source" : 0
        }
    ],
    "images" : [
        {
            "mimeType" : "image/png",
            "name" : "floor",
            "uri" : "img/floor.png"
        }
    ],
    "accessors" : [
        {
            "bufferView" : 0,
            "componentType" : 5126,
            "count" : 204,
            "max" : [
                0.22859999537467957,
                0.618067741394043,
                0.22859999537467957
            ],
            "min" : [
                -0.22859999537467957,
                0.005242347717285156,
                -0.22859999537467957
            ],
            "type" : "VEC3"
        },
        {
            "bufferView" : 1,
            "componentType" : 5126,
            "count" : 204,
            "type" : "VEC3"
        },
        {
            "bufferView" : 2,
            "componentType" : 5126,
            "count" : 204,
            "type" : "VEC2"
        },
        {
            "bufferView" : 3,
            "componentType" : 5123,
            "count" : 324,
            "type" : "SCALAR"
        },
        {
            "bufferView" : 4,
            "componentType" : 5126,
            "count" : 24,
            "max" : [
                0.30480000376701355,
                0.30480000376701355,
                0.30480000376701355
            ],
            "min" : [
                -0.30480000376701355,
                -0.30480000376701355,
                -0.30480000376701355
            ],
            "type" : "VEC3"
        },
        {
            "bufferView" : 5,
            "componentType" : 5126,
            "count" : 24,
            "type" : "VEC3"
        },
        {
            "bufferView" : 6,
            "componentType" : 5126,
            "count" : 24,
            "type" : "VEC2"
        },
        {
            "bufferView" : 7,
            "componentType" : 5123,
            "count" : 36,
            "type" : "SCALAR"
        }
    ],
    "bufferViews" : [
        {
            "buffer" : 0,
            "byteLength" : 2448,
            "byteOffset" : 0
        },
        {
            "buffer" : 0,
            "byteLength" : 2448,
            "byteOffset" : 2448
        },
        {
            "buffer" : 0,
            "byteLength" : 1632,
            "byteOffset" : 4896
        },
        {
            "buffer" : 0,
            "byteLength" : 648,
            "byteOffset" : 6528
        },
        {
            "buffer" : 0,
            "byteLength" : 288,
            "byteOffset" : 7176
        },
        {
            "buffer" : 0,
            "byteLength" : 288,
            "byteOffset" : 7464
        },
        {
            "buffer" : 0,
            "byteLength" : 192,
            "byteOffset" : 7752
        },
        {
            "buffer" : 0,
            "byteLength" : 72,
            "byteOffset" : 7944
        }
    ],
    "buffers" : [
        {
            "byteLength" : 8016,
            "uri" : "chair.bin"
        }
    ]
}
